<svg width="24" height="24" viewBox="0 0 24 24" fill="none" xmlns="http://www.w3.org/2000/svg">
<path fill-rule="evenodd" clip-rule="evenodd" d="M6 9.5997C6 8.93697 6.48112 8.39974 7.07462 8.39974H16.9254C17.5189 8.39974 18 8.93697 18 9.5997C18 10.2624 17.5189 10.7997 16.9254 10.7997H7.07462C6.48112 10.7997 6 10.2624 6 9.5997ZM6 13.1996C6 12.5368 6.41151 11.9996 6.91915 11.9996H12.2809C12.7885 11.9996 13.2 12.5368 13.2 13.1996C13.2 13.8623 12.7885 14.3996 12.2809 14.3996H6.91915C6.41151 14.3996 6 13.8623 6 13.1996ZM8.79988 0.354973L8.51645 0.419016C4.50314 1.32571 1.35191 4.41004 0.384396 8.38265C-0.130049 10.495 -0.127635 12.7201 0.388691 14.8402C1.32373 18.6795 4.01352 21.8813 7.62616 23.4719L8.14077 23.6862L8.35966 23.7678C10.3377 24.4458 12.5141 23.6001 13.4132 21.738L13.4784 21.5911L14.7599 21.5919C18.9605 21.5919 22.6485 18.6505 23.6453 14.5575C24.1182 12.6155 24.1182 10.5897 23.6453 8.64764L23.5323 8.18406C22.5945 4.33317 19.5398 1.3433 15.6495 0.464375L15.1652 0.354963C13.0702 -0.118323 10.8948 -0.118323 8.79988 0.354973ZM14.6363 2.69586L15.1207 2.80527C18.1242 3.48384 20.4788 5.7885 21.2005 8.75196L21.3134 9.21556C21.6955 10.7844 21.6955 12.4207 21.3134 13.9896C20.5768 17.0143 17.8465 19.192 14.7599 19.192H13.4113C12.5457 19.192 11.7574 19.6807 11.3679 20.441L11.2907 20.6081C10.9444 21.4438 9.95094 21.8286 9.03874 21.4605L8.8884 21.3999C5.81034 20.1579 3.50389 17.4886 2.72055 14.2722C2.29489 12.5245 2.2929 10.6888 2.71625 8.95048C3.46762 5.86538 5.91877 3.46626 9.04539 2.75989L9.32883 2.69585C11.0755 2.30123 12.8896 2.30123 14.6363 2.69586Z" fill="white"/>
</svg>
