<svg width="13" height="15" viewBox="0 0 13 15" fill="none" xmlns="http://www.w3.org/2000/svg">
<path d="M11.0962 10.6066L6.49999 15L1.9038 10.6066C-0.634601 8.18017 -0.634601 4.24622 1.9038 1.81981C4.44221 -0.606603 8.55774 -0.606603 11.0962 1.81981C13.6346 4.24622 13.6346 8.18017 11.0962 10.6066ZM6.49999 8.97464C8.09545 8.97464 9.38888 7.73828 9.38888 6.21321C9.38888 4.68812 8.09545 3.45178 6.49999 3.45178C4.9045 3.45178 3.61111 4.68812 3.61111 6.21321C3.61111 7.73828 4.9045 8.97464 6.49999 8.97464ZM6.49999 7.59392C5.70223 7.59392 5.05555 6.97578 5.05555 6.21321C5.05555 5.45066 5.70223 4.8325 6.49999 4.8325C7.29776 4.8325 7.94443 5.45066 7.94443 6.21321C7.94443 6.97578 7.29776 7.59392 6.49999 7.59392Z" fill="#FD902A"/>
</svg>
