<svg width="26" height="25" viewBox="0 0 26 25" fill="none" xmlns="http://www.w3.org/2000/svg">
<path fill-rule="evenodd" clip-rule="evenodd" d="M8.83338 1.0416C8.25808 1.0416 7.79171 1.50797 7.79171 2.08326V3.1611C4.58123 3.45769 2.58322 5.56293 2.58322 8.89262V18.104C2.58322 21.7484 4.91665 23.9583 8.59464 23.9583H17.4051C21.0866 23.9583 23.4166 21.7844 23.4166 18.181V8.89262C23.427 5.55884 21.431 3.4528 18.2082 3.16008V2.08326C18.2082 1.50797 17.7419 1.0416 17.1666 1.0416C16.5913 1.0416 16.1249 1.50797 16.1249 2.08326V3.12494H9.87505V2.08326C9.87505 1.50797 9.40868 1.0416 8.83338 1.0416ZM7.79171 5.2545V6.24993C7.79171 6.82523 8.25808 7.2916 8.83338 7.2916C9.40868 7.2916 9.87505 6.82523 9.87505 6.24993V5.20831H16.1249V6.24993C16.1249 6.82523 16.5913 7.2916 17.1666 7.2916C17.7419 7.2916 18.2082 6.82523 18.2082 6.24993V5.25307C20.2596 5.49735 21.3399 6.73809 21.3332 8.8894V9.37496H4.6667H4.66647V8.89265C4.66647 6.74583 5.75011 5.50255 7.79171 5.2545ZM4.66647 11.4583V18.104C4.66647 20.5717 6.04258 21.875 8.59455 21.875H17.405C19.967 21.875 21.3332 20.6003 21.3332 18.181L21.3332 11.4583H4.6667H4.66647ZM9.8749 14.5832C9.8749 15.1585 9.40853 15.6249 8.83323 15.6249C8.25793 15.6249 7.79156 15.1585 7.79156 14.5832C7.79156 14.0079 8.25793 13.5416 8.83323 13.5416C9.40853 13.5416 9.8749 14.0079 9.8749 14.5832ZM12.9999 15.6249C13.5752 15.6249 14.0416 15.1585 14.0416 14.5832C14.0416 14.0079 13.5752 13.5416 12.9999 13.5416C12.4246 13.5416 11.9582 14.0079 11.9582 14.5832C11.9582 15.1585 12.4246 15.6249 12.9999 15.6249ZM18.2083 14.5832C18.2083 15.1585 17.7419 15.6249 17.1666 15.6249C16.5913 15.6249 16.1249 15.1585 16.1249 14.5832C16.1249 14.0079 16.5913 13.5416 17.1666 13.5416C17.7419 13.5416 18.2083 14.0079 18.2083 14.5832ZM8.83323 19.7916C9.40853 19.7916 9.8749 19.3252 9.8749 18.7499C9.8749 18.1746 9.40853 17.7083 8.83323 17.7083C8.25793 17.7083 7.79156 18.1746 7.79156 18.7499C7.79156 19.3252 8.25793 19.7916 8.83323 19.7916ZM14.0416 18.7499C14.0416 19.3252 13.5752 19.7916 12.9999 19.7916C12.4246 19.7916 11.9582 19.3252 11.9582 18.7499C11.9582 18.1746 12.4246 17.7083 12.9999 17.7083C13.5752 17.7083 14.0416 18.1746 14.0416 18.7499ZM17.1666 19.7916C17.7419 19.7916 18.2083 19.3252 18.2083 18.7499C18.2083 18.1746 17.7419 17.7083 17.1666 17.7083C16.5913 17.7083 16.1249 18.1746 16.1249 18.7499C16.1249 19.3252 16.5913 19.7916 17.1666 19.7916Z" fill="#313131"/>
</svg>
