<svg width="23" height="21" viewBox="0 0 23 21" fill="none" xmlns="http://www.w3.org/2000/svg">
<path d="M16.8611 2.625V3.375H17.6111H21.5833C21.6136 3.375 21.6486 3.38644 21.6833 3.42374C21.719 3.46211 21.75 3.5253 21.75 3.60937V5.90625C21.75 7.0719 21.0542 8.37822 19.677 9.44322L19.6758 9.44409C18.5877 10.2889 17.2534 10.8296 15.8431 11.0024L15.4662 11.0486L15.2803 11.3798C14.7204 12.3775 14.1167 13.0761 13.6607 13.5204C13.4327 13.7426 13.2419 13.901 13.1124 14.0011C13.0477 14.0511 12.9985 14.0864 12.9677 14.1078C12.9523 14.1185 12.9415 14.1257 12.9358 14.1295L12.9315 14.1324L12.9315 14.1324L12.931 14.1327L12.5833 14.3514V14.7656V17.7188V18.4688H13.3333H15.1667C15.6869 18.4688 16.1118 18.6321 16.3963 18.8849C16.6706 19.1286 16.8611 19.4949 16.8611 20.0156V20.25H6.13889V20.0156C6.13889 19.4949 6.32935 19.1286 6.60367 18.8849C6.88824 18.6321 7.31307 18.4688 7.83333 18.4688H9.66667H10.4167V17.7188V14.7656V14.3514L10.069 14.1327L10.0685 14.1324L10.0685 14.1324L10.0642 14.1295C10.0585 14.1257 10.0477 14.1185 10.0323 14.1078C10.0015 14.0864 9.95227 14.0511 9.88758 14.0011C9.75815 13.901 9.56732 13.7426 9.33931 13.5204C8.88334 13.0761 8.27962 12.3775 7.71966 11.3798L7.53387 11.0488L7.1571 11.0025C5.75082 10.8297 4.41597 10.289 3.32324 9.44339L3.3223 9.44266C1.94273 8.37856 1.25 7.07264 1.25 5.90625V3.60937C1.25 3.5253 1.28098 3.46211 1.31671 3.42374C1.35144 3.38644 1.38638 3.375 1.41667 3.375H5.38889H6.13889V2.625V0.984375C6.13889 0.900298 6.16987 0.837106 6.2056 0.79874C6.24033 0.761443 6.27527 0.75 6.30556 0.75H16.6944C16.7247 0.75 16.7597 0.761443 16.7944 0.798739C16.8301 0.837105 16.8611 0.900298 16.8611 0.984375V2.625ZM3.83343 8.50074L3.83395 8.50115C4.37403 8.91872 4.98004 9.25037 5.62528 9.48899L6.97395 9.98774L6.61115 8.59632C6.35809 7.62578 6.1828 6.50903 6.14622 5.22858L6.12541 4.5H5.39653H2.94444H2.19444V5.25V5.90625C2.19444 6.33724 2.37185 6.79689 2.63424 7.21406C2.90613 7.64633 3.30518 8.09156 3.83343 8.50074ZM19.166 8.50115L19.1667 8.50066C19.5514 8.20252 19.9417 7.81635 20.2429 7.39649C20.5305 6.99566 20.8056 6.4687 20.8056 5.90625V5.25V4.5H20.0556H17.5997H16.8708L16.85 5.22858C16.8134 6.50903 16.6381 7.62578 16.385 8.59632L16.0222 9.98774L17.3709 9.48899C18.0147 9.25092 18.6248 8.91963 19.166 8.50115Z" stroke="#313131" stroke-width="1.5"/>
</svg>
